# Tiled2Unity generated file. Do not modify by hand.
# Wavefront file for 'Level_001_mesh_0006.obj'

# Vertices (Count = 36)
v -98 -13 0
v -99 -13 0
v -99 -12 0
v -98 -12 0
v -58 -19 0
v -59 -19 0
v -59 -18 0
v -58 -18 0
v -25 -20 0
v -26 -20 0
v -26 -19 0
v -25 -19 0
v -53 -20 0
v -54 -20 0
v -54 -19 0
v -53 -19 0
v -109 -20 0
v -110 -20 0
v -110 -19 0
v -109 -19 0
v -24 -21 0
v -25 -21 0
v -25 -20 0
v -24 -20 0
v -50 -21 0
v -51 -21 0
v -51 -20 0
v -50 -20 0
v -106 -21 0
v -107 -21 0
v -107 -20 0
v -106 -20 0
v -84 -22 0
v -85 -22 0
v -85 -21 0
v -84 -21 0

# Texture cooridinates (Count = 4)
vt 0 0
vt 1 0
vt 1 1
vt 0 1

# Normal
vn 0 0 -1

# Mesh description
g Level_001_mesh_0006

# Faces
f 1/1/1 2/2/1 3/3/1 4/4/1
f 5/1/1 6/2/1 7/3/1 8/4/1
f 9/1/1 10/2/1 11/3/1 12/4/1
f 13/1/1 14/2/1 15/3/1 16/4/1
f 17/1/1 18/2/1 19/3/1 20/4/1
f 21/1/1 22/2/1 23/3/1 24/4/1
f 25/1/1 26/2/1 27/3/1 28/4/1
f 29/1/1 30/2/1 31/3/1 32/4/1
f 33/1/1 34/2/1 35/3/1 36/4/1

