# Tiled2Unity generated file. Do not modify by hand.
# Wavefront file for 'Level_001_mesh_0009.obj'

# Vertices (Count = 32)
v -69 -18 0
v -70.03906 -18 0
v -70.03906 -17.49219 0
v -69 -17.49219 0
v -70 -18 0
v -71.03906 -18 0
v -71.03906 -17.49219 0
v -70 -17.49219 0
v -71 -18 0
v -72.03906 -18 0
v -72.03906 -17.49219 0
v -71 -17.49219 0
v -31 -19 0
v -32.03906 -19 0
v -32.03906 -18.49219 0
v -31 -18.49219 0
v -32 -19 0
v -33.03906 -19 0
v -33.03906 -18.49219 0
v -32 -18.49219 0
v -33 -19 0
v -34.03906 -19 0
v -34.03906 -18.49219 0
v -33 -18.49219 0
v -34 -19 0
v -35.03906 -19 0
v -35.03906 -18.49219 0
v -34 -18.49219 0
v -35 -19 0
v -36.03906 -19 0
v -36.03906 -18.49219 0
v -35 -18.49219 0

# Texture cooridinates (Count = 4)
vt 0 0
vt 1 0
vt 1 1
vt 0 1

# Normal
vn 0 0 -1

# Mesh description
g Level_001_mesh_0009

# Faces
f 1/1/1 2/2/1 3/3/1 4/4/1
f 5/1/1 6/2/1 7/3/1 8/4/1
f 9/1/1 10/2/1 11/3/1 12/4/1
f 13/1/1 14/2/1 15/3/1 16/4/1
f 17/1/1 18/2/1 19/3/1 20/4/1
f 21/1/1 22/2/1 23/3/1 24/4/1
f 25/1/1 26/2/1 27/3/1 28/4/1
f 29/1/1 30/2/1 31/3/1 32/4/1

