# Tiled2Unity generated file. Do not modify by hand.
# Wavefront file for 'Level_001_mesh_0011.obj'

# Vertices (Count = 24)
v -55 -19 0
v -55.39063 -19 0
v -55.39063 -18.67969 0
v -55 -18.67969 0
v -56 -19 0
v -56.39063 -19 0
v -56.39063 -18.67969 0
v -56 -18.67969 0
v -57 -19 0
v -57.39063 -19 0
v -57.39063 -18.67969 0
v -57 -18.67969 0
v -50 -20 0
v -50.39063 -20 0
v -50.39063 -19.67969 0
v -50 -19.67969 0
v -73 -23 0
v -73.39063 -23 0
v -73.39063 -22.67969 0
v -73 -22.67969 0
v -82 -23 0
v -82.39063 -23 0
v -82.39063 -22.67969 0
v -82 -22.67969 0

# Texture cooridinates (Count = 4)
vt 0 0
vt 1 0
vt 1 1
vt 0 1

# Normal
vn 0 0 -1

# Mesh description
g Level_001_mesh_0011

# Faces
f 1/1/1 2/2/1 3/3/1 4/4/1
f 5/1/1 6/2/1 7/3/1 8/4/1
f 9/1/1 10/2/1 11/3/1 12/4/1
f 13/1/1 14/2/1 15/3/1 16/4/1
f 17/1/1 18/2/1 19/3/1 20/4/1
f 21/1/1 22/2/1 23/3/1 24/4/1

