# Tiled2Unity generated file. Do not modify by hand.
# Wavefront file for 'Level_001_mesh_0008.obj'

# Vertices (Count = 36)
v -98 -14 0
v -99.00781 -14 0
v -99.00781 -12.99219 0
v -98 -12.99219 0
v -98 -15 0
v -99.00781 -15 0
v -99.00781 -13.99219 0
v -98 -13.99219 0
v -98 -16 0
v -99.00781 -16 0
v -99.00781 -14.99219 0
v -98 -14.99219 0
v -98 -17 0
v -99.00781 -17 0
v -99.00781 -15.99219 0
v -98 -15.99219 0
v -98 -18 0
v -99.00781 -18 0
v -99.00781 -16.99219 0
v -98 -16.99219 0
v -98 -19 0
v -99.00781 -19 0
v -99.00781 -17.99219 0
v -98 -17.99219 0
v -98 -20 0
v -99.00781 -20 0
v -99.00781 -18.99219 0
v -98 -18.99219 0
v -98 -21 0
v -99.00781 -21 0
v -99.00781 -19.99219 0
v -98 -19.99219 0
v -84 -23 0
v -85.00781 -23 0
v -85.00781 -21.99219 0
v -84 -21.99219 0

# Texture cooridinates (Count = 4)
vt 0 0
vt 1 0
vt 1 1
vt 0 1

# Normal
vn 0 0 -1

# Mesh description
g Level_001_mesh_0008

# Faces
f 1/1/1 2/2/1 3/3/1 4/4/1
f 5/1/1 6/2/1 7/3/1 8/4/1
f 9/1/1 10/2/1 11/3/1 12/4/1
f 13/1/1 14/2/1 15/3/1 16/4/1
f 17/1/1 18/2/1 19/3/1 20/4/1
f 21/1/1 22/2/1 23/3/1 24/4/1
f 25/1/1 26/2/1 27/3/1 28/4/1
f 29/1/1 30/2/1 31/3/1 32/4/1
f 33/1/1 34/2/1 35/3/1 36/4/1

