# Tiled2Unity generated file. Do not modify by hand.
# Wavefront file for 'Level_001_mesh_0007.obj'

# Vertices (Count = 28)
v -99 -13 0
v -100 -13 0
v -100 -12 0
v -99 -12 0
v -75 -19 0
v -76 -19 0
v -76 -18 0
v -75 -18 0
v -39 -20 0
v -40 -20 0
v -40 -19 0
v -39 -19 0
v -80 -20 0
v -81 -20 0
v -81 -19 0
v -80 -19 0
v -113 -20 0
v -114 -20 0
v -114 -19 0
v -113 -19 0
v -40 -21 0
v -41 -21 0
v -41 -20 0
v -40 -20 0
v -114 -21 0
v -115 -21 0
v -115 -20 0
v -114 -20 0

# Texture cooridinates (Count = 4)
vt 0 0
vt 1 0
vt 1 1
vt 0 1

# Normal
vn 0 0 -1

# Mesh description
g Level_001_mesh_0007

# Faces
f 1/1/1 2/2/1 3/3/1 4/4/1
f 5/1/1 6/2/1 7/3/1 8/4/1
f 9/1/1 10/2/1 11/3/1 12/4/1
f 13/1/1 14/2/1 15/3/1 16/4/1
f 17/1/1 18/2/1 19/3/1 20/4/1
f 21/1/1 22/2/1 23/3/1 24/4/1
f 25/1/1 26/2/1 27/3/1 28/4/1

