# Tiled2Unity generated file. Do not modify by hand.
# Wavefront file for 'normal_mesh_0005.obj'

# Vertices (Count = 176)
v -5792 -1760 0
v -5824 -1760 0
v -5824 -1728 0
v -5792 -1728 0
v -5824 -1760 0
v -5856 -1760 0
v -5856 -1728 0
v -5824 -1728 0
v -5856 -1760 0
v -5888 -1760 0
v -5888 -1728 0
v -5856 -1728 0
v -5888 -1760 0
v -5920 -1760 0
v -5920 -1728 0
v -5888 -1728 0
v -5920 -1760 0
v -5952 -1760 0
v -5952 -1728 0
v -5920 -1728 0
v -5952 -1760 0
v -5984 -1760 0
v -5984 -1728 0
v -5952 -1728 0
v -5984 -1760 0
v -6016 -1760 0
v -6016 -1728 0
v -5984 -1728 0
v -6016 -1760 0
v -6048 -1760 0
v -6048 -1728 0
v -6016 -1728 0
v -6048 -1760 0
v -6080 -1760 0
v -6080 -1728 0
v -6048 -1728 0
v -6080 -1760 0
v -6112 -1760 0
v -6112 -1728 0
v -6080 -1728 0
v -6112 -1760 0
v -6144 -1760 0
v -6144 -1728 0
v -6112 -1728 0
v -6144 -1760 0
v -6176 -1760 0
v -6176 -1728 0
v -6144 -1728 0
v -6176 -1760 0
v -6208 -1760 0
v -6208 -1728 0
v -6176 -1728 0
v -6208 -1760 0
v -6240 -1760 0
v -6240 -1728 0
v -6208 -1728 0
v -6240 -1760 0
v -6272 -1760 0
v -6272 -1728 0
v -6240 -1728 0
v -6272 -1760 0
v -6304 -1760 0
v -6304 -1728 0
v -6272 -1728 0
v -6304 -1760 0
v -6336 -1760 0
v -6336 -1728 0
v -6304 -1728 0
v -6336 -1760 0
v -6368 -1760 0
v -6368 -1728 0
v -6336 -1728 0
v -6368 -1760 0
v -6400 -1760 0
v -6400 -1728 0
v -6368 -1728 0
v -6400 -1760 0
v -6432 -1760 0
v -6432 -1728 0
v -6400 -1728 0
v -6432 -1760 0
v -6464 -1760 0
v -6464 -1728 0
v -6432 -1728 0
v -6464 -1760 0
v -6496 -1760 0
v -6496 -1728 0
v -6464 -1728 0
v -5792 -1792 0
v -5824 -1792 0
v -5824 -1760 0
v -5792 -1760 0
v -5824 -1792 0
v -5856 -1792 0
v -5856 -1760 0
v -5824 -1760 0
v -5856 -1792 0
v -5888 -1792 0
v -5888 -1760 0
v -5856 -1760 0
v -5888 -1792 0
v -5920 -1792 0
v -5920 -1760 0
v -5888 -1760 0
v -5920 -1792 0
v -5952 -1792 0
v -5952 -1760 0
v -5920 -1760 0
v -5952 -1792 0
v -5984 -1792 0
v -5984 -1760 0
v -5952 -1760 0
v -5984 -1792 0
v -6016 -1792 0
v -6016 -1760 0
v -5984 -1760 0
v -6016 -1792 0
v -6048 -1792 0
v -6048 -1760 0
v -6016 -1760 0
v -6048 -1792 0
v -6080 -1792 0
v -6080 -1760 0
v -6048 -1760 0
v -6080 -1792 0
v -6112 -1792 0
v -6112 -1760 0
v -6080 -1760 0
v -6112 -1792 0
v -6144 -1792 0
v -6144 -1760 0
v -6112 -1760 0
v -6144 -1792 0
v -6176 -1792 0
v -6176 -1760 0
v -6144 -1760 0
v -6176 -1792 0
v -6208 -1792 0
v -6208 -1760 0
v -6176 -1760 0
v -6208 -1792 0
v -6240 -1792 0
v -6240 -1760 0
v -6208 -1760 0
v -6240 -1792 0
v -6272 -1792 0
v -6272 -1760 0
v -6240 -1760 0
v -6272 -1792 0
v -6304 -1792 0
v -6304 -1760 0
v -6272 -1760 0
v -6304 -1792 0
v -6336 -1792 0
v -6336 -1760 0
v -6304 -1760 0
v -6336 -1792 0
v -6368 -1792 0
v -6368 -1760 0
v -6336 -1760 0
v -6368 -1792 0
v -6400 -1792 0
v -6400 -1760 0
v -6368 -1760 0
v -6400 -1792 0
v -6432 -1792 0
v -6432 -1760 0
v -6400 -1760 0
v -6432 -1792 0
v -6464 -1792 0
v -6464 -1760 0
v -6432 -1760 0
v -6464 -1792 0
v -6496 -1792 0
v -6496 -1760 0
v -6464 -1760 0

# Texture cooridinates (Count = 15)
vt 0 0.6559139
vt 0.25 0.6559139
vt 0.25 1
vt 0 1
vt 0.5 0.6559139
vt 0.5 1
vt 0.75 0.6559139
vt 0.75 1
vt 1 0.6559139
vt 1 1
vt 0 0.311828
vt 0.25 0.311828
vt 0.5 0.311828
vt 0.75 0.311828
vt 1 0.311828

# Normal
vn 0 0 -1

# Mesh description
g normal_mesh_0005

# Faces
f 1/1/1 2/2/1 3/3/1 4/4/1
f 5/1/1 6/2/1 7/3/1 8/4/1
f 9/1/1 10/2/1 11/3/1 12/4/1
f 13/1/1 14/2/1 15/3/1 16/4/1
f 17/2/1 18/5/1 19/6/1 20/3/1
f 21/5/1 22/7/1 23/8/1 24/6/1
f 25/7/1 26/9/1 27/10/1 28/8/1
f 29/2/1 30/5/1 31/6/1 32/3/1
f 33/5/1 34/7/1 35/8/1 36/6/1
f 37/7/1 38/9/1 39/10/1 40/8/1
f 41/1/1 42/2/1 43/3/1 44/4/1
f 45/1/1 46/2/1 47/3/1 48/4/1
f 49/1/1 50/2/1 51/3/1 52/4/1
f 53/2/1 54/5/1 55/6/1 56/3/1
f 57/5/1 58/7/1 59/8/1 60/6/1
f 61/1/1 62/2/1 63/3/1 64/4/1
f 65/2/1 66/5/1 67/6/1 68/3/1
f 69/5/1 70/7/1 71/8/1 72/6/1
f 73/1/1 74/2/1 75/3/1 76/4/1
f 77/2/1 78/5/1 79/6/1 80/3/1
f 81/5/1 82/7/1 83/8/1 84/6/1
f 85/7/1 86/9/1 87/10/1 88/8/1
f 89/11/1 90/12/1 91/2/1 92/1/1
f 93/11/1 94/12/1 95/2/1 96/1/1
f 97/11/1 98/12/1 99/2/1 100/1/1
f 101/11/1 102/12/1 103/2/1 104/1/1
f 105/12/1 106/13/1 107/5/1 108/2/1
f 109/13/1 110/14/1 111/7/1 112/5/1
f 113/14/1 114/15/1 115/9/1 116/7/1
f 117/12/1 118/13/1 119/5/1 120/2/1
f 121/13/1 122/14/1 123/7/1 124/5/1
f 125/14/1 126/15/1 127/9/1 128/7/1
f 129/11/1 130/12/1 131/2/1 132/1/1
f 133/11/1 134/12/1 135/2/1 136/1/1
f 137/11/1 138/12/1 139/2/1 140/1/1
f 141/12/1 142/13/1 143/5/1 144/2/1
f 145/13/1 146/14/1 147/7/1 148/5/1
f 149/11/1 150/12/1 151/2/1 152/1/1
f 153/12/1 154/13/1 155/5/1 156/2/1
f 157/13/1 158/14/1 159/7/1 160/5/1
f 161/11/1 162/12/1 163/2/1 164/1/1
f 165/12/1 166/13/1 167/5/1 168/2/1
f 169/13/1 170/14/1 171/7/1 172/5/1
f 173/14/1 174/15/1 175/9/1 176/7/1

