# Tiled2Unity generated file. Do not modify by hand.
# Wavefront file for 'normal_mesh_0003.obj'

# Vertices (Count = 48)
v -3488 -1760 0
v -3520 -1760 0
v -3520 -1728 0
v -3488 -1728 0
v -3520 -1760 0
v -3552 -1760 0
v -3552 -1728 0
v -3520 -1728 0
v -5664 -1760 0
v -5696 -1760 0
v -5696 -1728 0
v -5664 -1728 0
v -5696 -1760 0
v -5728 -1760 0
v -5728 -1728 0
v -5696 -1728 0
v -5728 -1760 0
v -5760 -1760 0
v -5760 -1728 0
v -5728 -1728 0
v -5760 -1760 0
v -5792 -1760 0
v -5792 -1728 0
v -5760 -1728 0
v -3488 -1792 0
v -3520 -1792 0
v -3520 -1760 0
v -3488 -1760 0
v -3520 -1792 0
v -3552 -1792 0
v -3552 -1760 0
v -3520 -1760 0
v -5664 -1792 0
v -5696 -1792 0
v -5696 -1760 0
v -5664 -1760 0
v -5696 -1792 0
v -5728 -1792 0
v -5728 -1760 0
v -5696 -1760 0
v -5728 -1792 0
v -5760 -1792 0
v -5760 -1760 0
v -5728 -1760 0
v -5760 -1792 0
v -5792 -1792 0
v -5792 -1760 0
v -5760 -1760 0

# Texture cooridinates (Count = 15)
vt 0 0.6559139
vt 0.25 0.6559139
vt 0.25 1
vt 0 1
vt 0.5 0.6559139
vt 0.5 1
vt 0.75 0.6559139
vt 0.75 1
vt 1 0.6559139
vt 1 1
vt 0 0.311828
vt 0.25 0.311828
vt 0.5 0.311828
vt 0.75 0.311828
vt 1 0.311828

# Normal
vn 0 0 -1

# Mesh description
g normal_mesh_0003

# Faces
f 1/1/1 2/2/1 3/3/1 4/4/1
f 5/2/1 6/5/1 7/6/1 8/3/1
f 9/1/1 10/2/1 11/3/1 12/4/1
f 13/2/1 14/5/1 15/6/1 16/3/1
f 17/5/1 18/7/1 19/8/1 20/6/1
f 21/7/1 22/9/1 23/10/1 24/8/1
f 25/11/1 26/12/1 27/2/1 28/1/1
f 29/12/1 30/13/1 31/5/1 32/2/1
f 33/11/1 34/12/1 35/2/1 36/1/1
f 37/12/1 38/13/1 39/5/1 40/2/1
f 41/13/1 42/14/1 43/7/1 44/5/1
f 45/14/1 46/15/1 47/9/1 48/7/1

